<svg id="Слой_1" data-name="Слой 1" xmlns="http://www.w3.org/2000/svg" viewBox="0 0 62.13 57.16"><defs><style>.cls-1{fill:#6d6c6a;}.cls-2{fill:#b12222;}</style></defs><title>logo</title><path class="cls-1" d="M279.67,419.61h0l3.92-14.53H287l6.79,25.33L296.3,421l1.73-1.34h6.49l3.92-14.53h3.44l3.92,14.53h11.29a27.14,27.14,0,0,0,1.23-7.94c0-10.41-8-18.82-17.87-18.82a17.88,17.88,0,0,0-13.19,6,17.66,17.66,0,0,0-13.1-6c-9.84,0-18,8.41-18,18.82a26.85,26.85,0,0,0,1.34,7.94Z" transform="translate(-266.2 -392.85)"/><path class="cls-2" d="M314.37,423.24h11.28C318.1,439.5,297.26,450,297.26,450S276.52,439.5,269,423.24H281l1.72-1.34,2.58-9.46,6.79,25.34h3.44l3.92-14.54h6.41l1.71-1.34,2.49-9.46,2.58,9.46Z" transform="translate(-266.2 -392.85)"/></svg>